<!--?xml version="1.0" standalone="no"?-->
              <svg id="sw-js-blob-svg" viewBox="0 0 100 100" xmlns="http://www.w3.org/2000/svg" version="1.1">
                    <defs> 
                        <linearGradient id="sw-gradient" x1="0" x2="1" y1="1" y2="0">
                            <stop id="stop1" stop-color="rgba(66, 91, 181, 1)" offset="0%"></stop>
                            <stop id="stop2" stop-color="rgba(84.173, 96.724, 141.908, 1)" offset="100%"></stop>
                        </linearGradient>
                    </defs>
                <path fill="url(#sw-gradient)" d="M26,-31.3C31.5,-26.5,32.1,-16.1,31.4,-7.4C30.8,1.3,28.7,8.4,26.1,17C23.4,25.6,20,35.7,13.5,38.8C7,41.9,-2.7,37.9,-12.3,34.2C-21.9,30.5,-31.5,27.1,-35.5,20.4C-39.6,13.6,-38.1,3.6,-34.9,-4.7C-31.7,-12.9,-26.7,-19.4,-20.5,-24.1C-14.4,-28.8,-7.2,-31.7,1.5,-33.6C10.3,-35.4,20.6,-36.1,26,-31.3Z" width="100%" height="100%" transform="translate(50 50)" stroke-width="0" style="transition: all 0.3s ease 0s;" stroke="url(#sw-gradient)"></path>
              </svg>